<?xml version="1.0" encoding="iso-8859-1"?>
<!-- Generator: Adobe Illustrator 18.0.0, SVG Export Plug-In . SVG Version: 6.00 Build 0)  -->
<!DOCTYPE svg PUBLIC "-//W3C//DTD SVG 1.1//EN" "http://www.w3.org/Graphics/SVG/1.1/DTD/svg11.dtd">
<svg xmlns="http://www.w3.org/2000/svg" xmlns:xlink="http://www.w3.org/1999/xlink" version="1.1" id="Capa_1" x="0px" y="0px" viewBox="0 0 422 422" style="enable-background:new 0 0 422 422;" xml:space="preserve" width="128px" height="128px">
<g>
	<path d="M315.91,415.682c-18.036-25.363-33.765-53.708-46.749-84.248c-9.987-23.464-18.514-48.622-25.406-74.934h1.595   c2.209,0,4-1.791,4-4s-1.791-4-4-4h-3.608c-0.284-1.148-0.586-2.285-0.864-3.438c-27.564-114.287-16.372-214.6-16.255-215.6   c0.123-1.066-0.186-2.136-0.857-2.971c-0.672-0.835-1.651-1.365-2.718-1.473l-6.048-0.606V4c0-2.209-1.791-4-4-4s-4,1.791-4,4   v20.414l-6.049,0.606c-1.066,0.107-2.046,0.638-2.718,1.473c-0.672,0.835-0.98,1.905-0.857,2.971   c0.117,1,11.311,101.313-16.255,215.6c-0.278,1.152-0.58,2.289-0.864,3.438h-3.608c-2.209,0-4,1.791-4,4s1.791,4,4,4h1.596   c-6.893,26.315-15.42,51.474-25.407,74.935c-12.98,30.534-28.709,58.88-46.748,84.246c-0.867,1.22-0.981,2.822-0.295,4.152   c0.687,1.33,2.058,2.166,3.555,2.166h41.69c1.093,0,2.138-0.447,2.893-1.237c0.755-0.79,1.153-1.854,1.104-2.945   c-0.027-0.601-0.036-1.209-0.036-1.817c0-30.879,25.121-56,56-56s56,25.121,56,56c0,0.61-0.01,1.221-0.036,1.822   c-0.049,1.091,0.351,2.154,1.105,2.942c0.755,0.789,1.799,1.235,2.891,1.235h41.689c1.497,0,2.868-0.836,3.555-2.166   C316.891,418.504,316.777,416.901,315.91,415.682z M188.899,246.938c24.771-102.701,18.605-194.315,16.82-214.354l5.13-0.514   l5.432,0.514c-1.785,20.039-7.95,111.653,16.82,214.354c0.126,0.524,0.265,1.039,0.393,1.563h-44.987   C188.634,247.977,188.773,247.462,188.899,246.938z M274.969,414c-1.06-34.367-29.349-62-63.969-62s-62.908,27.633-63.969,62   h-30.017c16.536-24.193,31.046-50.878,43.186-79.434c10.393-24.417,19.213-50.643,26.295-78.066h49.009   c7.081,27.42,15.901,53.645,26.295,78.065c12.142,28.56,26.651,55.244,43.185,79.435H274.969z" fill="#FFFFFF"/>
	<path d="M224.001,274.458c-0.471-1.746-2.054-2.959-3.862-2.959h-18.275c-1.809,0-3.392,1.213-3.862,2.959l-15.362,57   c-0.411,1.527,0.115,3.152,1.344,4.148c1.229,0.995,2.926,1.176,4.336,0.456c6.991-3.567,14.835-5.452,22.683-5.452   c7.848,0,15.691,1.885,22.683,5.452c0.574,0.293,1.197,0.436,1.816,0.436c0.899,0,1.792-0.303,2.52-0.893   c1.229-0.996,1.755-2.621,1.344-4.148L224.001,274.458z M211.001,322.61c-6.281,0-12.56,1.041-18.513,3.045l12.439-46.156h12.146   l12.439,46.156C223.56,323.651,217.282,322.61,211.001,322.61z" fill="#FFFFFF"/>
</g>
<g>
</g>
<g>
</g>
<g>
</g>
<g>
</g>
<g>
</g>
<g>
</g>
<g>
</g>
<g>
</g>
<g>
</g>
<g>
</g>
<g>
</g>
<g>
</g>
<g>
</g>
<g>
</g>
<g>
</g>
</svg>
