<?xml version="1.0" encoding="iso-8859-1"?>
<!-- Generator: Adobe Illustrator 18.0.0, SVG Export Plug-In . SVG Version: 6.00 Build 0)  -->
<!DOCTYPE svg PUBLIC "-//W3C//DTD SVG 1.1//EN" "http://www.w3.org/Graphics/SVG/1.1/DTD/svg11.dtd">
<svg xmlns="http://www.w3.org/2000/svg" xmlns:xlink="http://www.w3.org/1999/xlink" version="1.1" id="Capa_1" x="0px" y="0px" viewBox="0 0 417.984 417.984" style="enable-background:new 0 0 417.984 417.984;" xml:space="preserve" width="128px" height="128px">
<g>
	<g>
		<g>
			<path d="M167.193,108.026c-8.332-15.695-24.98-24.684-41.436-22.361c-13.296,1.875-23.702,10.69-28.988,24.127     c-12.51-7.202-26.138-7.601-37.698-0.778c-14.307,8.445-21.721,25.853-18.448,43.319c2.64,14.084,16.596,48.127,89.004,60.018     c0.33,0.053,0.656,0.08,0.98,0.08v-0.013c1.631-0.007,3.251-0.672,4.43-1.976C184.23,155.999,173.912,120.683,167.193,108.026z      M52.418,150.123c-2.346-12.52,2.779-24.887,12.753-30.774c9.401-5.55,20.722-3.854,31.075,4.641     c0.737,0.63,1.639,1.09,2.654,1.305c3.246,0.686,6.426-1.39,7.109-4.632c2.775-13.161,10.584-21.586,21.424-23.115     c11.469-1.614,23.188,4.855,29.16,16.106c5.44,10.248,13.368,38.947-28.28,86.297C66.252,188.898,54.554,161.525,52.418,150.123z     " fill="#FFFFFF"/>
			<path d="M358.914,109.015c-11.559-6.823-25.188-6.424-37.698,0.776c-5.285-13.436-15.693-22.251-28.989-24.126     c-16.451-2.318-33.102,6.666-41.434,22.361c-6.721,12.656-17.039,47.972,32.154,102.417c1.178,1.305,2.802,1.97,4.431,1.976     c0,0,0.651-0.015,0.98-0.067c72.408-11.891,86.365-45.933,89.004-60.017C380.634,134.868,373.22,117.46,358.914,109.015z      M365.566,150.124c-2.135,11.402-13.833,38.774-75.896,49.827c-41.647-47.351-33.721-76.05-28.28-86.297     c5.975-11.251,17.699-17.721,29.16-16.106c10.777,1.52,18.553,9.861,21.37,22.891c0.17,1,0.591,1.971,1.282,2.809     c2.107,2.555,5.889,2.92,8.445,0.812c10.379-8.558,21.738-10.275,31.166-4.71C362.789,125.236,367.914,137.604,365.566,150.124z" fill="#FFFFFF"/>
		</g>
		<path d="M319.043,409.093c-0.153-0.279-15.402-28.167-33.686-73.274v-18.341c0-3.314-2.686-6-6-6h-3.486    c-7.746-20.653-14.832-41.625-21.078-62.42V230.33c0-3.313-2.688-6-6-6h-1.046c-15.769-58.269-24.921-114.826-27.249-168.297    h0.471c3.313,0,6-2.687,6-6V34.985c0-3.314-2.688-6-6-6h-5.977V6c0-3.313-2.686-6-6-6c-3.313,0-6,2.687-6,6v22.985h-5.975    c-3.313,0-6,2.687-6,6v15.048c0,3.313,2.688,6,6,6h0.47c-2.329,53.475-11.479,110.031-27.249,168.297h-1.045c-3.314,0-6,2.688-6,6    v18.724c-6.249,20.805-13.335,41.776-21.078,62.425h-3.486c-3.314,0-6,2.686-6,6v18.34    c-18.283,45.109-33.532,72.996-33.686,73.275c-1.021,1.859-0.986,4.119,0.094,5.945s3.043,2.945,5.164,2.945    c0,0,44.438,0,44.476,0c3.313,0,6-2.685,6-6c0-21.939,23.223-46.473,54.314-46.521c31.094,0.049,54.316,24.582,54.316,46.521    c0,3.315,2.686,6,6,6c0.038,0,44.477,0,44.477,0c2.121,0,4.084-1.119,5.164-2.945S320.064,410.953,319.043,409.093z     M263.076,311.478h-16.871l-15.859-55.701h13.948C249.943,274.342,256.245,293.02,263.076,311.478z M233.728,311.478H184.27    l15.949-55.701h17.649L233.728,311.478z M203.017,40.985h11.951v3.048h-11.951V40.985z M208.994,66.146    c2.936,50.535,11.777,103.631,26.338,158.184h-13.438l-6.902-39.035l-0.004,0.001c-0.428-2.409-2.305-4.411-4.854-4.864    c-3.268-0.586-6.377,1.596-6.957,4.857l-6.939,39.041h-13.584C197.213,169.78,206.056,116.683,208.994,66.146z M209.708,224.33    h-0.624H208.9h-0.475l0.643-3.616L209.708,224.33z M175.193,236.33h67.6v7.447h-67.6V236.33z M173.69,255.777h14.046    l-15.948,55.701h-16.87C161.744,293.027,168.04,274.349,173.69,255.777z M144.628,323.478h128.729v7.445H144.628V323.478z     M274.892,405.984c-1.673-12.52-8.478-24.852-19.262-34.568c-12.768-11.502-25.982-17.953-46.639-17.953    c-20.655,0-33.869,6.451-46.639,17.953c-10.783,9.717-17.588,22.049-19.26,34.568h-28.994c5.82-11.462,16.512-33.493,28.596-63.06    h132.597c12.084,29.568,22.775,51.599,28.595,63.06H274.892z" fill="#FFFFFF"/>
	</g>
</g>
<g>
</g>
<g>
</g>
<g>
</g>
<g>
</g>
<g>
</g>
<g>
</g>
<g>
</g>
<g>
</g>
<g>
</g>
<g>
</g>
<g>
</g>
<g>
</g>
<g>
</g>
<g>
</g>
<g>
</g>
</svg>
